<svg xmlns="http://www.w3.org/2000/svg" viewBox="0 0 800 600" preserveAspectRatio="xMidYMid slice" role="img" aria-label="Rombongan jamaah umroh">
  <defs>
    <linearGradient id="jSky" x1="0" y1="0" x2="0" y2="1">
      <stop offset="0" stop-color="#9cc6d4"/>
      <stop offset="1" stop-color="#f2e3bd"/>
    </linearGradient>
  </defs>
  <rect width="800" height="600" fill="url(#jSky)"/>
  <g fill="#2c4f5c" opacity=".7">
    <path d="M40 340V230h30v-36h22v36h32v-54h20v54h36v164z"/>
    <path d="M660 340V240h26v-40h20v40h32v-30h18v30h34v170z"/>
  </g>
  <rect y="340" width="800" height="260" fill="#e6d5ac"/>
  <g>
    <rect x="330" y="240" width="140" height="140" fill="#161616"/>
    <rect x="330" y="264" width="140" height="20" fill="#d9a63a"/>
    <path d="M330 240l20-18h100l20 18z" fill="#0d0d0d"/>
  </g>
  <g fill="#f7f5ef">
    <ellipse cx="200" cy="440" rx="26" ry="52"/>
    <ellipse cx="270" cy="460" rx="28" ry="56"/>
    <ellipse cx="140" cy="470" rx="27" ry="54"/>
    <ellipse cx="540" cy="445" rx="26" ry="52"/>
    <ellipse cx="610" cy="465" rx="28" ry="56"/>
    <ellipse cx="680" cy="450" rx="26" ry="52"/>
  </g>
  <g fill="#4b4238">
    <circle cx="200" cy="386" r="16"/>
    <circle cx="270" cy="402" r="17"/>
    <circle cx="140" cy="414" r="16"/>
    <circle cx="540" cy="391" r="16"/>
    <circle cx="610" cy="407" r="17"/>
    <circle cx="680" cy="396" r="16"/>
  </g>
  <g fill="#0a6559">
    <ellipse cx="400" cy="470" rx="30" ry="60"/>
    <circle cx="400" cy="402" r="18"/>
  </g>
</svg>
